<svg xmlns="http://www.w3.org/2000/svg" xmlns:xlink="http://www.w3.org/1999/xlink" width="900" zoomAndPan="magnify" viewBox="0 0 675 809.999993" height="1080" preserveAspectRatio="xMidYMid meet" version="1.0"><defs><clipPath id="bfacfd8c69"><path d="M 7.027344 11 L 630 11 L 630 788 L 7.027344 788 Z M 7.027344 11 " clip-rule="nonzero"/></clipPath><clipPath id="8f5270e1a5"><path d="M 649.011719 107.582031 L 671.421875 107.582031 L 671.421875 154 L 649.011719 154 Z M 649.011719 107.582031 " clip-rule="nonzero"/></clipPath></defs><g clip-path="url(#bfacfd8c69)"><path fill="#000000" d="M 605.910156 271.980469 C 592.046875 275.136719 578.929688 273.113281 565.796875 268.160156 C 565.796875 269.136719 565.730469 269.832031 565.796875 270.527344 C 568.023438 289.5 568.855469 308.535156 568.160156 327.628906 C 567.289062 351.664062 563.988281 375.3125 555.78125 398.078125 C 551.558594 409.761719 546.097656 420.796875 538.621094 430.773438 C 529.132812 443.457031 517.390625 453.277344 502.335938 458.757812 C 486.828125 464.398438 471.105469 464.285156 455.292969 460.289062 C 441.601562 456.828125 429.007812 450.847656 417.144531 443.292969 C 401.683594 433.453125 387.984375 421.519531 375.398438 408.277344 C 358.75 390.75 344.410156 371.507812 331.988281 350.800781 C 331.320312 349.691406 330.644531 348.585938 329.835938 347.25 C 329.273438 347.816406 328.769531 348.160156 328.4375 348.632812 C 315.320312 368.132812 296.625 379.011719 273.871094 382.988281 C 248.28125 387.449219 224.492188 382.292969 202.945312 367.625 C 194.152344 361.644531 186.851562 354.148438 181.34375 344.96875 C 181.019531 344.441406 180.582031 343.976562 180.0625 343.320312 C 179.050781 343.976562 178.097656 344.488281 177.28125 345.144531 C 164.898438 355.171875 152.097656 364.8125 141.925781 377.175781 C 133.742188 387.125 125.972656 397.445312 118.625 408.035156 C 109.292969 421.5 104.015625 436.671875 101.09375 452.777344 C 97.933594 470.070312 95.621094 487.46875 95.613281 505.058594 C 95.613281 514.25 96.226562 523.464844 96.808594 532.636719 C 97.902344 549.71875 99.925781 566.734375 99.796875 583.886719 C 99.683594 598.410156 99.769531 612.941406 99.832031 627.441406 C 99.890625 643.78125 96.734375 659.519531 91.011719 674.78125 C 85.011719 690.84375 80.253906 707.285156 76.859375 724.066406 C 75.53125 730.613281 74.882812 737.375 74.699219 744.070312 C 74.449219 752.832031 74.902344 761.605469 75.105469 770.367188 C 75.144531 771.554688 75.421875 772.722656 75.570312 773.902344 C 75.738281 775.292969 76.003906 776.699219 76.003906 778.101562 C 75.976562 782.867188 72.90625 786.503906 68.632812 787.003906 C 64.449219 787.496094 60.453125 784.933594 59.53125 780.375 C 58.484375 775.199219 57.6875 769.894531 57.558594 764.617188 C 57.351562 755.308594 57.484375 745.980469 57.964844 736.679688 C 58.476562 727.035156 60.257812 717.53125 62.855469 708.21875 C 66.898438 693.726562 70.949219 679.25 76.199219 665.089844 C 80.585938 653.25 82.703125 640.832031 82.648438 628.140625 C 82.5625 609.398438 82.691406 590.648438 82.230469 571.90625 C 81.933594 560.121094 80.941406 548.328125 79.863281 536.566406 C 78.121094 517.402344 77.757812 498.289062 80.039062 479.148438 C 80.585938 474.542969 81.03125 469.914062 81.550781 465.027344 C 78.648438 464.898438 75.847656 464.878906 73.101562 464.609375 C 69.660156 464.285156 66.15625 464.042969 62.816406 463.191406 C 54.730469 461.125 50.027344 455.4375 49.65625 447.113281 C 49.488281 443.144531 50.035156 439.117188 50.546875 435.160156 C 51.082031 431.089844 51.984375 427.0625 52.679688 423.003906 C 52.847656 421.972656 52.863281 420.914062 52.992188 419.359375 C 50.324219 419.832031 48.011719 420.210938 45.722656 420.664062 C 39.648438 421.878906 33.542969 422.816406 27.339844 421.695312 C 25.742188 421.40625 24.128906 421.09375 22.582031 420.636719 C 14.011719 418.050781 9.234375 412.21875 7.90625 403.425781 C 7.007812 397.445312 7.527344 391.53125 8.742188 385.667969 C 9.550781 381.738281 10.515625 377.851562 11.480469 373.976562 C 14.039062 363.757812 18.464844 354.410156 24.574219 345.859375 C 28.75 340.046875 33.023438 334.304688 37.050781 328.417969 C 39.183594 325.292969 40.925781 321.90625 42.820312 318.625 C 44.859375 315.09375 44.339844 311.671875 41.917969 308.621094 C 40.324219 306.597656 38.347656 304.882812 36.457031 303.09375 C 35.046875 301.75 33.433594 300.617188 32.050781 299.261719 C 27.953125 295.265625 26.355469 290.371094 27.179688 284.75 C 28.414062 276.320312 31.671875 268.652344 36.773438 261.910156 C 40.6875 256.746094 45.082031 251.914062 49.496094 247.167969 C 54.003906 242.335938 58.902344 237.867188 63.4375 233.054688 C 66.089844 230.226562 68.59375 227.195312 70.785156 223.976562 C 73.972656 219.257812 74.066406 214.285156 71.0625 209.296875 C 68.4375 204.921875 66.136719 200.375 63.371094 196.101562 C 56.5 185.519531 54.710938 174.050781 56.925781 161.847656 C 57.871094 156.636719 58.996094 151.441406 60.414062 146.324219 C 63.214844 136.1875 68.429688 127.304688 75.929688 120.015625 C 87.535156 108.714844 101.660156 104.003906 117.808594 105.367188 C 119.859375 105.542969 121.910156 105.753906 123.96875 105.867188 C 130.347656 106.199219 134.996094 103.214844 138.351562 98.058594 C 140.457031 94.832031 141.40625 91.1875 142.148438 87.414062 C 145.085938 72.78125 150.011719 59.066406 160.546875 47.917969 C 167.171875 40.925781 174.65625 35.105469 182.964844 30.320312 C 197.121094 22.160156 212.378906 17.039062 228.394531 14.230469 C 257.351562 9.175781 285.847656 11.125 313.765625 20.480469 C 326.378906 24.71875 338.167969 30.632812 348.816406 38.683594 C 356.050781 44.144531 362.429688 50.441406 367.605469 57.898438 C 374.136719 67.253906 377.929688 77.539062 378.78125 88.988281 C 379.171875 94.359375 380.246094 99.726562 381.554688 104.964844 C 382.566406 109.011719 385.320312 111.976562 389.375 113.507812 C 393.835938 115.195312 398.242188 117.011719 402.722656 118.636719 C 412.980469 122.335938 421.96875 128.066406 429.851562 135.53125 C 437.269531 142.550781 440.871094 151.089844 440.351562 161.429688 C 439.988281 168.746094 438.457031 175.8125 436.972656 182.914062 C 434.75 193.523438 434.171875 204.167969 436.101562 214.871094 C 436.398438 216.578125 436.882812 218.246094 437.355469 219.90625 C 438.050781 222.269531 439.449219 224.171875 441.492188 225.570312 C 443.71875 227.101562 445.988281 228.601562 448.207031 230.152344 C 452.324219 233.007812 456.183594 236.160156 458.796875 240.539062 C 463.640625 248.632812 463.984375 257.265625 460.949219 265.898438 C 459.167969 270.972656 456.5 275.765625 453.875 280.484375 C 449.328125 288.683594 445.5 297.128906 443.632812 306.367188 C 443.320312 307.953125 443.085938 309.566406 442.992188 311.179688 C 442.660156 316.464844 444.414062 320.648438 449.246094 323.429688 C 452.417969 325.253906 455.449219 327.417969 458.371094 329.652344 C 466.542969 335.863281 471.078125 344.265625 472.675781 354.316406 C 473.851562 361.847656 473.554688 369.171875 470.132812 376.230469 C 464.382812 388.050781 454.96875 394.820312 442.121094 397.113281 C 435.089844 398.371094 430.128906 404.214844 429.8125 411.789062 C 435.0625 413.152344 440.082031 415.285156 442.296875 420.886719 C 444.394531 426.21875 443.355469 431.542969 441.511719 436.828125 C 441.871094 437.144531 442.148438 437.515625 442.519531 437.679688 C 454.003906 442.910156 465.894531 446.238281 478.648438 445.945312 C 493.550781 445.574219 506.203125 439.90625 516.871094 429.613281 C 524.375 422.371094 529.949219 413.757812 534.4375 404.410156 C 541.402344 389.917969 545.445312 374.558594 547.960938 358.769531 C 552.050781 333.027344 552.070312 307.183594 549.519531 281.3125 C 548.683594 272.796875 547.402344 264.324219 546.457031 255.828125 C 546.253906 253.9375 546.28125 251.90625 546.753906 250.070312 C 547.542969 247.011719 549.742188 245.101562 552.839844 244.359375 C 554.953125 243.847656 556.929688 244.109375 558.542969 245.796875 C 559.203125 246.492188 559.945312 247.101562 561.132812 248.207031 C 560.972656 246.992188 561.019531 246.277344 560.769531 245.703125 C 559.886719 243.617188 559.0625 241.457031 557.914062 239.507812 C 552.914062 231.097656 549.519531 221.925781 545.492188 213.050781 C 543.832031 209.410156 542.238281 205.726562 540.835938 201.972656 C 539.9375 199.558594 539.128906 197.027344 538.816406 194.488281 C 538.074219 188.480469 541.941406 184.769531 547.96875 185.382812 C 548.507812 185.429688 549.046875 185.519531 550.011719 185.667969 C 549.878906 184.601562 549.824219 183.703125 549.648438 182.824219 C 548.144531 175.292969 546.523438 167.761719 545.132812 160.214844 C 544.007812 154.113281 544.121094 147.917969 544.824219 141.753906 C 545.699219 134.203125 550.234375 129.976562 557.421875 129.9375 C 561.558594 129.929688 564.730469 131.644531 566.835938 135.242188 C 567.375 136.179688 567.847656 137.144531 568.542969 138.46875 C 568.949219 137.441406 569.21875 136.699219 569.554688 135.984375 C 570.878906 133.148438 572.140625 130.273438 573.578125 127.492188 C 574.210938 126.265625 575.128906 125.125 576.0625 124.085938 C 581.636719 117.910156 589.570312 119.007812 592.804688 126.675781 C 594.242188 130.097656 594.734375 133.953125 595.503906 137.644531 C 595.867188 139.414062 595.914062 141.242188 596.136719 143.375 C 597.386719 142.570312 598.25 141.957031 599.167969 141.417969 C 605.753906 137.617188 612.078125 140.027344 614.316406 147.261719 C 615.882812 152.296875 616.019531 157.507812 616.132812 162.699219 C 616.199219 165.492188 616.132812 168.300781 616.132812 171.203125 C 616.847656 171.378906 617.347656 171.539062 617.859375 171.601562 C 624.574219 172.484375 628.625 178.011719 629.230469 183.675781 C 629.5625 186.753906 629.609375 190.035156 628.886719 193.003906 C 625.695312 206.375 622.773438 219.839844 617.234375 232.535156 C 615.1875 237.253906 614.445312 242.308594 613.988281 247.390625 C 613.8125 249.261719 614.195312 250.839844 616.199219 251.914062 C 619.816406 253.863281 621.316406 257.210938 621.964844 261.199219 C 626.175781 287.589844 628.238281 314.109375 627.496094 340.851562 C 626.667969 370.117188 622.707031 398.910156 614.417969 427.046875 C 608.40625 447.410156 600.273438 466.835938 589.011719 484.898438 C 579.53125 500.089844 568.234375 513.71875 554.257812 525.015625 C 538.082031 538.050781 519.921875 546.824219 499.285156 550.078125 C 480.382812 553.066406 461.886719 551.117188 443.808594 544.996094 C 427.226562 539.378906 412.125 530.996094 398.601562 519.847656 C 396.691406 518.273438 394.941406 516.472656 393.261719 514.636719 C 391.914062 513.152344 391.230469 511.308594 391.433594 509.257812 C 391.859375 504.976562 396.0625 502.40625 400.355469 503.984375 C 402.359375 504.726562 404.214844 505.941406 406.058594 507.082031 C 412.0625 510.753906 417.921875 514.703125 424.035156 518.1875 C 436.84375 525.488281 450.441406 530.707031 465.058594 533.128906 C 487.960938 536.910156 509.503906 533.109375 529.605469 521.40625 C 545.148438 512.367188 557.558594 499.941406 568.023438 485.457031 C 581.101562 467.34375 590.152344 447.25 596.785156 426.035156 C 603.566406 404.328125 607.433594 382.050781 609.257812 359.417969 C 611.542969 331.320312 610.355469 303.34375 606.53125 275.441406 C 606.402344 274.476562 606.199219 273.53125 605.949219 272.09375 Z M 294.359375 357.710938 C 291.707031 354.667969 291.410156 351.460938 291.308594 348.160156 C 291.078125 338.851562 290.722656 329.539062 290.511719 320.21875 C 290.207031 307.007812 289.972656 293.800781 289.769531 280.570312 C 289.730469 278.410156 289.984375 276.246094 290.160156 274.097656 C 290.296875 272.1875 291.1875 270.988281 293.125 270.324219 C 298.285156 268.570312 302.402344 265.304688 305.992188 261.246094 C 310.175781 256.515625 313.632812 251.285156 316.539062 245.683594 C 321.925781 235.328125 325.570312 224.355469 328.101562 212.988281 C 333.566406 188.507812 334.355469 163.824219 331.15625 139 C 329.207031 123.894531 325.625 109.195312 319.71875 95.101562 C 319.273438 94.035156 318.753906 92.984375 318.179688 91.753906 C 310.304688 95.546875 302.753906 99.320312 295.675781 103.957031 C 291.328125 106.804688 287.015625 109.75 282.496094 112.328125 C 279.511719 114.015625 276.246094 115.304688 272.972656 116.410156 C 269.019531 117.734375 265.058594 117.363281 261.25 115.574219 C 257.148438 113.636719 253.761719 110.835938 251.316406 106.96875 C 248.707031 102.851562 247.355469 98.335938 246.777344 93.542969 C 246.546875 91.519531 246.257812 89.5 245.960938 87.117188 C 243.988281 87.367188 242.28125 87.449219 240.640625 87.839844 C 231.632812 90.039062 223.136719 93.570312 214.957031 97.835938 C 204.734375 103.148438 195.460938 109.972656 186.25 116.828125 C 185.601562 117.308594 185.128906 118.132812 184.765625 118.894531 C 171.734375 146.230469 165.128906 174.820312 168.144531 205.226562 C 169.367188 217.390625 172.457031 229.09375 178.402344 239.90625 C 185.414062 252.675781 195.328125 261.984375 209.640625 266.121094 C 211.347656 266.613281 213.257812 267.464844 214.382812 268.765625 C 217.8125 272.660156 220.59375 276.765625 220.816406 282.480469 C 221.671875 304.667969 222.914062 326.851562 223.972656 349.03125 C 224.148438 352.769531 224.761719 356.5625 223.042969 360.492188 C 247.289062 370.109375 270.746094 370.042969 294.359375 357.710938 Z M 600.066406 194.820312 C 599.207031 195.75 598.871094 196.167969 598.492188 196.527344 C 594.464844 200.3125 588.789062 198.863281 587.148438 193.605469 C 586.832031 192.578125 586.628906 191.492188 586.535156 190.417969 C 585.597656 179.410156 584.699219 168.414062 583.816406 157.394531 C 583.371094 151.898438 582.964844 146.425781 582.539062 140.925781 C 581.703125 141.875 581.351562 142.875 581.222656 143.875 C 580.953125 146.027344 580.71875 148.1875 580.582031 150.347656 C 579.867188 161.328125 581.082031 172.195312 582.203125 183.089844 C 582.519531 186.214844 583.105469 189.3125 583.402344 192.4375 C 583.800781 196.507812 581.757812 199.605469 578.316406 200.414062 C 574.90625 201.210938 571.6875 199.226562 570.3125 195.386719 C 569.730469 193.765625 569.238281 192.085938 568.828125 190.417969 C 565.554688 177.175781 562.335938 163.925781 559.082031 150.683594 C 558.617188 148.835938 558.097656 147.011719 557.605469 145.15625 C 556.207031 148.363281 556.316406 151.601562 556.800781 154.742188 C 557.765625 161.039062 559.035156 167.308594 560.15625 173.585938 C 562.570312 187.023438 566.769531 199.8125 573.753906 211.617188 C 573.976562 211.996094 574.164062 212.394531 574.320312 212.785156 C 575.441406 215.59375 574.859375 218.441406 572.789062 220.203125 C 570.65625 222.039062 567.417969 222.222656 564.953125 220.40625 C 563.664062 219.460938 562.550781 218.226562 561.492188 217.003906 C 560.316406 215.628906 559.285156 214.128906 557.753906 212.078125 C 557.96875 213.191406 557.988281 213.617188 558.144531 213.988281 C 560.878906 220.109375 563.46875 226.3125 566.410156 232.332031 C 569.171875 238.007812 571.777344 243.691406 572.472656 250.050781 C 572.660156 251.757812 572.761719 253.484375 572.917969 255.4375 C 574.042969 255.578125 575.097656 255.773438 576.15625 255.847656 C 579.394531 256.097656 582.628906 256.273438 585.867188 256.542969 C 591.507812 257.035156 597.128906 256.96875 602.710938 255.867188 C 605.011719 255.402344 607.300781 254.773438 609.167969 252.851562 C 602.832031 250.496094 600.96875 245.703125 601.441406 239.59375 C 601.503906 238.71875 601.550781 237.839844 601.8125 237.015625 C 603.074219 232.878906 604.382812 228.761719 605.679688 224.644531 C 607.433594 219.070312 609.183594 213.507812 610.910156 207.925781 C 611.097656 207.292969 611.003906 206.5625 611.066406 205.570312 C 607.636719 207.203125 604.648438 207.210938 602.0625 204.652344 C 599.410156 202.054688 600.105469 198.660156 600.105469 194.777344 Z M 157.328125 167.578125 C 153.628906 166.882812 150.363281 166.121094 147.0625 165.675781 C 138.6875 164.546875 133.296875 168.476562 131.609375 176.796875 C 131.433594 177.648438 131.203125 178.5 131.15625 179.355469 C 130.894531 184.34375 132.398438 189.832031 137.742188 191.539062 C 142.351562 193.003906 147.171875 193.921875 151.921875 194.851562 C 154.027344 195.265625 154.816406 194.265625 155.019531 192.1875 C 155.605469 186.261719 156.273438 180.367188 156.867188 174.457031 C 157.089844 172.25 157.171875 170.007812 157.3125 167.578125 Z M 344.640625 202.917969 C 350.074219 203.945312 355.046875 203.648438 359.824219 201.414062 C 367.335938 197.917969 369.21875 188.570312 363.597656 182.414062 C 359.964844 178.4375 355.351562 176.210938 350.09375 175.339844 C 348.980469 175.152344 347.832031 175.3125 346.867188 175.3125 C 346.117188 184.777344 345.382812 193.765625 344.640625 202.9375 Z M 350.363281 209.027344 C 348.035156 209.613281 347.535156 211.125 347.023438 212.46875 C 344.613281 218.785156 344.457031 225.171875 346.996094 231.488281 C 347.710938 233.257812 348.84375 234.964844 350.167969 236.335938 C 353.40625 239.683594 357.820312 239.824219 361.195312 236.632812 C 362.726562 235.1875 364.070312 233.34375 364.925781 231.394531 C 367.921875 224.53125 367.910156 217.503906 365.195312 210.53125 C 364.683594 209.230469 363.894531 208.035156 363.078125 206.894531 C 362.429688 206.015625 361.402344 205.839844 360.472656 206.46875 C 359.535156 207.117188 359.414062 208.046875 359.933594 209.046875 C 360.140625 209.425781 360.410156 209.769531 360.613281 210.148438 C 364.257812 216.828125 364.089844 223.613281 361.152344 230.46875 C 360.816406 231.253906 360.316406 231.996094 359.777344 232.65625 C 357.226562 235.882812 354.121094 235.929688 351.71875 232.644531 C 350.773438 231.367188 350.058594 229.835938 349.539062 228.335938 C 347.757812 223.253906 347.878906 218.132812 349.425781 213.007812 C 349.777344 211.835938 349.984375 210.640625 350.34375 209.027344 Z M 154.214844 207.320312 C 153.648438 205.03125 153.191406 202.714844 152.480469 200.46875 C 152.164062 199.449219 151.023438 198.894531 150.105469 199.503906 C 149.464844 199.929688 149.175781 201.007812 148.90625 201.832031 C 148.796875 202.15625 149.175781 202.640625 149.308594 203.046875 C 150.613281 207.292969 150.1875 211.394531 148.054688 215.277344 C 147.5 216.308594 146.726562 217.28125 145.855469 218.058594 C 144.074219 219.617188 142.128906 219.339844 140.960938 217.273438 C 140.234375 215.992188 139.746094 214.472656 139.523438 213.007812 C 139.046875 209.835938 139.671875 206.757812 140.867188 203.789062 C 141.199219 202.980469 141.609375 202.210938 141.832031 201.386719 C 141.925781 201.054688 141.738281 200.359375 141.496094 200.265625 C 141.089844 200.089844 140.484375 200.125 140.03125 200.265625 C 139.671875 200.394531 139.363281 200.804688 139.085938 201.136719 C 135.535156 205.320312 134.910156 214.667969 137.871094 219.320312 C 140.261719 223.09375 144.417969 224.011719 147.914062 221.230469 C 149.398438 220.042969 150.632812 218.421875 151.597656 216.78125 C 153.238281 213.925781 153.851562 210.714844 154.203125 207.320312 Z M 602.394531 167.402344 C 600.558594 174.503906 599.929688 181.699219 600.511719 189.027344 C 601.839844 181.875 602.628906 174.691406 602.394531 167.402344 Z M 602.394531 167.402344 " fill-opacity="1" fill-rule="nonzero"/></g><path fill="#000000" d="M 367.984375 513.847656 C 367.261719 518.585938 366.660156 524.320312 365.464844 529.902344 C 362.949219 541.558594 360.121094 553.140625 359.089844 565.046875 C 358.320312 573.992188 357.578125 582.960938 357.292969 591.9375 C 356.96875 602.203125 359.128906 612.207031 361.699219 622.074219 C 363.644531 629.492188 366.296875 636.742188 368.523438 644.097656 C 372.585938 657.46875 377.328125 670.617188 382.222656 683.683594 C 385.820312 693.320312 389.632812 702.878906 393.011719 712.605469 C 397.65625 725.949219 400.753906 739.628906 401.792969 753.789062 C 402.238281 759.9375 403.566406 766.007812 404.355469 772.121094 C 404.695312 774.894531 404.667969 777.738281 404.855469 780.550781 C 405.03125 783.136719 405.253906 785.722656 405.457031 788.300781 C 405.550781 789.589844 405.746094 790.890625 405.699219 792.1875 C 405.503906 796.84375 402.238281 800.355469 397.890625 800.71875 C 393.503906 801.089844 389.679688 798.214844 388.761719 793.632812 C 388.242188 790.980469 387.75 788.265625 387.75 785.585938 C 387.769531 777.203125 386.609375 768.957031 385.285156 760.722656 C 384.5625 756.234375 384.199219 751.691406 383.6875 747.175781 C 382.316406 734.925781 378.652344 723.242188 374.46875 711.734375 C 369.128906 697.09375 363.488281 682.550781 358.164062 667.882812 C 355.84375 661.476562 353.988281 654.890625 351.957031 648.390625 C 349.734375 641.269531 347.285156 634.203125 345.355469 626.988281 C 340.839844 610.074219 339.511719 592.964844 341.226562 575.460938 C 342.859375 558.917969 345.417969 542.59375 349.628906 526.527344 C 352.285156 516.390625 351.800781 506.367188 349.289062 496.324219 C 346.550781 485.398438 343.824219 474.476562 341.089844 463.554688 C 340.734375 462.199219 340.308594 460.84375 340.078125 459.453125 C 339.585938 456.449219 340.839844 453.75 343.175781 452.507812 C 345.625 451.210938 348.683594 451.765625 350.882812 454.058594 C 351.847656 455.066406 352.710938 456.21875 353.351562 457.460938 C 354.566406 459.878906 355.78125 462.328125 356.613281 464.878906 C 360.796875 477.546875 364.515625 490.332031 366.855469 503.480469 C 367.402344 506.5625 367.550781 509.714844 367.976562 513.847656 Z M 367.984375 513.847656 " fill-opacity="1" fill-rule="nonzero"/><path fill="#000000" d="M 148.007812 717.882812 C 147.554688 701.257812 150.253906 684.9375 153.359375 668.625 C 156.28125 653.296875 158.574219 637.875 159.824219 622.324219 C 160.503906 613.773438 160 605.234375 159.195312 596.710938 C 158.210938 586.355469 157.507812 575.976562 156.382812 565.65625 C 155.402344 556.726562 153.832031 547.871094 152.820312 538.933594 C 150.390625 517.214844 151.644531 495.664062 156.996094 474.449219 C 158.101562 470.070312 159.871094 465.832031 161.652344 461.660156 C 162.476562 459.722656 163.851562 457.90625 165.324219 456.394531 C 167.234375 454.417969 170.074219 454.222656 172.226562 455.476562 C 174.3125 456.691406 175.332031 458.871094 174.792969 461.613281 C 174.277344 464.265625 173.550781 466.871094 172.855469 469.488281 C 170.046875 480.226562 168.746094 491.167969 167.988281 502.210938 C 166.855469 518.976562 168.5625 535.511719 171.511719 551.988281 C 172.761719 558.898438 173.328125 565.945312 174.070312 572.9375 C 174.972656 581.441406 175.730469 589.972656 176.585938 598.472656 C 178.085938 613.460938 177.1875 628.34375 174.851562 643.160156 C 172.179688 660.167969 169.21875 677.136719 166.585938 694.132812 C 165.84375 698.9375 165.511719 703.835938 165.425781 708.691406 C 165.261719 718.320312 164.925781 727.980469 165.527344 737.578125 C 166.003906 745.21875 167.820312 752.769531 168.96875 760.363281 C 169.683594 765.0625 170.316406 769.785156 170.910156 774.523438 C 171.039062 775.46875 170.992188 776.480469 170.851562 777.425781 C 170.277344 781.246094 167.550781 784.054688 163.914062 784.621094 C 160.234375 785.1875 156.660156 783.46875 155.066406 779.984375 C 154.214844 778.128906 153.722656 776.078125 153.398438 774.078125 C 152.144531 766.613281 151.117188 759.089844 149.828125 751.628906 C 147.878906 740.472656 147.5625 729.234375 148.007812 717.890625 Z M 148.007812 717.882812 " fill-opacity="1" fill-rule="nonzero"/><path fill="#000000" d="M 654.058594 145.238281 C 654.300781 150.386719 653.558594 155.402344 651.980469 160.28125 C 651.488281 161.800781 650.773438 163.332031 649.828125 164.609375 C 648.105469 166.949219 645.171875 167.671875 642.546875 166.734375 C 639.941406 165.824219 638.1875 163.394531 638.308594 160.457031 C 638.375 158.972656 638.792969 157.46875 639.226562 156.03125 C 641.945312 147.066406 641.359375 138.273438 637.949219 129.625 C 636.148438 125.097656 633.335938 121.304688 629.3125 118.476562 C 628.421875 117.867188 627.558594 117.171875 626.875 116.355469 C 625.546875 114.742188 625.121094 112.894531 626.011719 110.890625 C 626.875 108.917969 628.46875 107.636719 630.546875 107.730469 C 632.53125 107.8125 634.636719 108.285156 636.464844 109.101562 C 640.730469 111.03125 643.855469 114.339844 646.460938 118.164062 C 651.082031 124.96875 653.382812 132.5625 654.09375 140.695312 C 654.214844 142.1875 654.113281 143.71875 654.113281 145.238281 Z M 654.058594 145.238281 " fill-opacity="1" fill-rule="nonzero"/><path fill="#000000" d="M 505.054688 173.417969 C 509.03125 173.289062 511.257812 176.324219 510.015625 179.78125 C 508.605469 183.675781 509.003906 187.449219 509.839844 191.289062 C 510.191406 192.867188 510.628906 194.441406 511.167969 195.953125 C 513.789062 203.363281 517.484375 210.179688 522.464844 216.308594 C 523.140625 217.140625 523.871094 217.96875 524.4375 218.875 C 526.265625 221.863281 525.8125 225.347656 523.410156 227.453125 C 520.867188 229.679688 517.296875 229.566406 514.53125 227.136719 C 513.808594 226.5 513.179688 225.746094 512.585938 224.96875 C 505.277344 215.277344 500.621094 204.4375 498.765625 192.4375 C 498.132812 188.367188 497.910156 184.195312 499.277344 180.21875 C 499.886719 178.417969 500.917969 176.683594 502.113281 175.21875 C 502.9375 174.21875 504.421875 173.78125 505.054688 173.417969 Z M 505.054688 173.417969 " fill-opacity="1" fill-rule="nonzero"/><g clip-path="url(#8f5270e1a5)"><path fill="#000000" d="M 671.488281 145.648438 C 671.394531 146.25 671.347656 147.335938 671.058594 148.382812 C 670.226562 151.515625 667.691406 153.382812 664.613281 153.261719 C 661.710938 153.128906 659.269531 151.15625 658.742188 148.113281 C 658.316406 145.664062 658.15625 143.152344 658.121094 140.675781 C 658.054688 134.390625 656.609375 128.425781 654.253906 122.679688 C 653.316406 120.40625 651.988281 118.265625 650.636719 116.207031 C 649.113281 113.933594 648.789062 112.042969 649.96875 110.207031 C 651.136719 108.425781 653.316406 107.480469 655.691406 108.222656 C 657.285156 108.714844 658.972656 109.546875 660.125 110.699219 C 661.785156 112.375 663.257812 114.332031 664.324219 116.410156 C 668.121094 123.820312 670.566406 131.625 671.011719 140 C 671.105469 141.734375 671.28125 143.457031 671.457031 145.664062 Z M 671.488281 145.648438 " fill-opacity="1" fill-rule="nonzero"/></g><path fill="#000000" d="M 491.390625 198.328125 C 493.683594 198.28125 495.183594 199.679688 495.972656 202.128906 C 497.03125 205.394531 498.105469 208.695312 499.589844 211.792969 C 500.492188 213.664062 502.019531 215.316406 503.523438 216.808594 C 505.933594 219.226562 506.492188 222.382812 504.671875 225.003906 C 502.828125 227.667969 499.191406 228.539062 496.335938 226.765625 C 495.082031 225.996094 493.953125 224.875 493.097656 223.679688 C 489.445312 218.578125 487.300781 212.800781 486.410156 206.625 C 486.179688 204.984375 486.476562 203.160156 486.984375 201.5625 C 487.597656 199.542969 489.238281 198.464844 491.410156 198.34375 Z M 491.390625 198.328125 " fill-opacity="1" fill-rule="nonzero"/><path fill="#000000" d="M 248.4375 242.179688 C 237.792969 242.039062 227.8125 240 218.535156 235.011719 C 213.136719 232.109375 208.398438 228.378906 204.585938 223.53125 C 201.394531 219.460938 199.140625 214.945312 198.289062 209.816406 C 198.019531 208.238281 197.953125 206.5625 198.132812 204.984375 C 198.382812 202.695312 200.070312 201.15625 202.128906 200.886719 C 204.160156 200.617188 206.078125 201.796875 206.980469 203.929688 C 207.277344 204.625 207.480469 205.367188 207.621094 206.105469 C 209.046875 213.191406 213.121094 218.46875 218.933594 222.519531 C 225.296875 226.960938 232.46875 229.308594 240.082031 230.226562 C 250.609375 231.488281 260.886719 230.402344 270.542969 225.8125 C 273.917969 224.199219 277.082031 222 280.085938 219.730469 C 281.753906 218.46875 282.894531 216.492188 284.25 214.832031 C 285.140625 213.75 285.863281 212.503906 286.894531 211.585938 C 289.128906 209.613281 292.355469 209.472656 294.722656 211.066406 C 297.097656 212.644531 298.285156 215.703125 297.234375 218.496094 C 296.632812 220.0625 295.660156 221.613281 294.5 222.828125 C 281.976562 236.160156 266.246094 241.929688 248.429688 242.199219 Z M 248.4375 242.179688 " fill-opacity="1" fill-rule="nonzero"/><path fill="#000000" d="M 241.835938 179.78125 C 242.417969 174.207031 242.957031 168.933594 243.5625 163.675781 C 244.125 158.621094 244.757812 153.574219 245.425781 148.539062 C 245.5625 147.484375 245.832031 146.390625 246.257812 145.414062 C 247.160156 143.292969 249.089844 142.160156 251.15625 142.410156 C 253.328125 142.679688 254.753906 143.941406 255.265625 146.027344 C 255.601562 147.371094 255.738281 148.820312 255.691406 150.210938 C 255.285156 161.558594 254.839844 172.929688 254.300781 184.277344 C 254.226562 185.835938 253.746094 187.515625 253.019531 188.90625 C 251.304688 192.152344 248.820312 193.179688 245.15625 192.613281 C 243.875 192.402344 242.578125 192.152344 241.316406 192.234375 C 239.5 192.355469 238.238281 193.5625 238.097656 194.914062 C 237.949219 196.210938 239.015625 197.835938 240.609375 198.34375 C 241.605469 198.660156 242.726562 198.640625 243.800781 198.605469 C 244.65625 198.578125 245.488281 198.199219 246.34375 198.105469 C 249.582031 197.722656 252.472656 199.496094 253.558594 202.445312 C 254.636719 205.367188 253.539062 208.582031 250.765625 210.371094 C 248.207031 212.015625 245.296875 212.355469 242.328125 212.246094 C 233.738281 211.921875 226.625 205.429688 225.816406 197.207031 C 225.027344 189.117188 230.371094 181.988281 238.414062 180.421875 C 239.453125 180.21875 240.507812 180.050781 241.882812 179.789062 Z M 241.835938 179.78125 " fill-opacity="1" fill-rule="nonzero"/><path fill="#000000" d="M 310.898438 160.910156 C 310.664062 162.394531 310.621094 163.941406 310.175781 165.363281 C 309.097656 168.800781 305.789062 170.886719 302.421875 170.414062 C 298.921875 169.914062 296.402344 167.160156 296.195312 163.554688 C 296.132812 162.367188 296.316406 161.171875 296.269531 159.984375 C 296.113281 156.125 293.097656 153.9375 289.34375 154.882812 C 286.894531 155.496094 285.167969 157.0625 283.796875 159.101562 C 283.007812 160.261719 282.3125 161.511719 281.375 162.542969 C 279.546875 164.5625 276.90625 165.128906 274.546875 164.101562 C 272.136719 163.0625 270.773438 161.132812 270.8125 158.527344 C 270.828125 156.949219 271.125 155.28125 271.710938 153.808594 C 275.246094 144.785156 285.242188 139.210938 294.804688 140.851562 C 304.203125 142.457031 310.824219 150.765625 310.898438 160.910156 Z M 310.898438 160.910156 " fill-opacity="1" fill-rule="nonzero"/><path fill="#000000" d="M 213.566406 129.195312 C 224.445312 129.34375 230.816406 137.578125 230.4375 147.398438 C 230.277344 151.40625 227.367188 154.28125 223.703125 154.4375 C 219.972656 154.597656 217.050781 152.046875 216.375 148.011719 C 216.308594 147.59375 216.308594 147.148438 216.246094 146.722656 C 215.863281 143.515625 214.59375 142.632812 211.414062 143.578125 C 208.304688 144.496094 205.867188 146.453125 203.734375 148.820312 C 202.722656 149.941406 201.824219 151.191406 200.757812 152.25 C 198.429688 154.550781 195.542969 155.023438 193.039062 153.605469 C 190.496094 152.148438 189.441406 149.132812 190.359375 145.945312 C 190.421875 145.738281 190.496094 145.535156 190.582031 145.332031 C 193.632812 136.875 204.484375 129.242188 213.582031 129.167969 Z M 213.566406 129.195312 " fill-opacity="1" fill-rule="nonzero"/><path fill="#000000" d="M 255.804688 291.066406 C 251.332031 290.824219 247.316406 290.667969 243.320312 290.40625 C 242.152344 290.324219 240.953125 290.082031 239.851562 289.664062 C 237.152344 288.617188 235.628906 286.363281 235.628906 283.695312 C 235.628906 280.929688 237.335938 278.5 240.164062 277.621094 C 241.695312 277.148438 243.339844 276.878906 244.953125 276.8125 C 251.890625 276.574219 258.816406 276.367188 265.757812 276.339844 C 271.664062 276.304688 275.375 281.226562 273.464844 286.261719 C 272.339844 289.222656 269.660156 291 266.050781 291.066406 C 262.480469 291.132812 258.902344 291.066406 255.785156 291.066406 Z M 255.804688 291.066406 " fill-opacity="1" fill-rule="nonzero"/></svg>