<svg xmlns="http://www.w3.org/2000/svg" xmlns:xlink="http://www.w3.org/1999/xlink" width="900" zoomAndPan="magnify" viewBox="0 0 675 809.999993" height="1080" preserveAspectRatio="xMidYMid meet" version="1.0"><defs><clipPath id="92886038b3"><path d="M 7.011719 11 L 629.734375 11 L 629.734375 787 L 7.011719 787 Z M 7.011719 11 " clip-rule="nonzero"/></clipPath><clipPath id="32bfbede28"><path d="M 648.722656 107.554688 L 671.121094 107.554688 L 671.121094 154 L 648.722656 154 Z M 648.722656 107.554688 " clip-rule="nonzero"/></clipPath></defs><g clip-path="url(#92886038b3)"><path fill="#a2a3bd" d="M 605.640625 271.921875 C 591.777344 275.074219 578.667969 273.054688 565.542969 268.101562 C 565.542969 269.074219 565.476562 269.769531 565.542969 270.464844 C 567.765625 289.433594 568.601562 308.46875 567.90625 327.558594 C 567.035156 351.589844 563.734375 375.230469 555.527344 397.992188 C 551.308594 409.671875 545.847656 420.703125 538.375 430.679688 C 528.890625 443.363281 517.15625 453.183594 502.109375 458.660156 C 486.605469 464.296875 470.890625 464.1875 455.085938 460.191406 C 441.402344 456.734375 428.8125 450.753906 416.953125 443.195312 C 401.496094 433.359375 387.804688 421.429688 375.222656 408.1875 C 358.582031 390.667969 344.25 371.429688 331.835938 350.726562 C 331.167969 349.613281 330.492188 348.511719 329.683594 347.175781 C 329.117188 347.742188 328.617188 348.085938 328.285156 348.558594 C 315.175781 368.054688 296.484375 378.929688 273.742188 382.90625 C 248.164062 387.367188 224.382812 382.210938 202.847656 367.542969 C 194.058594 361.566406 186.761719 354.074219 181.253906 344.894531 C 180.929688 344.367188 180.492188 343.902344 179.972656 343.246094 C 178.964844 343.902344 178.007812 344.414062 177.191406 345.070312 C 164.816406 355.09375 152.019531 364.734375 141.851562 377.09375 C 133.675781 387.042969 125.90625 397.359375 118.5625 407.949219 C 109.234375 421.410156 103.960938 436.578125 101.039062 452.679688 C 97.878906 469.972656 95.570312 487.363281 95.558594 504.953125 C 95.558594 514.140625 96.171875 523.355469 96.757812 532.523438 C 97.851562 549.601562 99.871094 566.613281 99.742188 583.765625 C 99.628906 598.285156 99.714844 612.8125 99.777344 627.3125 C 99.835938 643.648438 96.683594 659.378906 90.960938 674.640625 C 84.964844 690.699219 80.207031 707.136719 76.8125 723.917969 C 75.488281 730.460938 74.839844 737.222656 74.652344 743.914062 C 74.402344 752.675781 74.859375 761.445312 75.0625 770.207031 C 75.097656 771.394531 75.378906 772.5625 75.527344 773.738281 C 75.691406 775.128906 75.960938 776.539062 75.960938 777.941406 C 75.933594 782.707031 72.863281 786.339844 68.589844 786.839844 C 64.410156 787.332031 60.414062 784.773438 59.496094 780.210938 C 58.449219 775.039062 57.652344 769.734375 57.519531 764.460938 C 57.316406 755.152344 57.445312 745.824219 57.929688 736.527344 C 58.4375 726.882812 60.21875 717.382812 62.816406 708.074219 C 66.855469 693.582031 70.910156 679.109375 76.15625 664.953125 C 80.542969 653.113281 82.65625 640.699219 82.597656 628.007812 C 82.515625 609.269531 82.644531 590.523438 82.183594 571.789062 C 81.886719 560.003906 80.894531 548.210938 79.816406 536.453125 C 78.074219 517.292969 77.714844 498.183594 79.992188 479.046875 C 80.542969 474.441406 80.984375 469.8125 81.503906 464.929688 C 78.601562 464.796875 75.804688 464.78125 73.058594 464.511719 C 69.621094 464.1875 66.117188 463.945312 62.777344 463.09375 C 54.691406 461.023438 49.992188 455.34375 49.621094 447.015625 C 49.453125 443.046875 50.003906 439.023438 50.511719 435.066406 C 51.050781 430.996094 51.949219 426.972656 52.644531 422.910156 C 52.8125 421.882812 52.828125 420.824219 52.960938 419.269531 C 50.289062 419.742188 47.980469 420.121094 45.691406 420.574219 C 39.617188 421.789062 33.519531 422.726562 27.316406 421.605469 C 25.722656 421.316406 24.109375 421 22.558594 420.546875 C 13.992188 417.960938 9.21875 412.128906 7.894531 403.339844 C 6.992188 397.359375 7.511719 391.445312 8.726562 385.585938 C 9.535156 381.65625 10.496094 377.769531 11.460938 373.894531 C 14.019531 363.679688 18.441406 354.332031 24.554688 345.785156 C 28.726562 339.972656 33 334.234375 37.023438 328.347656 C 39.15625 325.222656 40.898438 321.835938 42.789062 318.554688 C 44.828125 315.023438 44.308594 311.601562 41.890625 308.550781 C 40.296875 306.53125 38.320312 304.816406 36.429688 303.027344 C 35.019531 301.683594 33.40625 300.550781 32.023438 299.199219 C 27.925781 295.203125 26.332031 290.308594 27.15625 284.6875 C 28.390625 276.261719 31.644531 268.59375 36.746094 261.855469 C 40.65625 256.691406 45.050781 251.859375 49.464844 247.113281 C 53.96875 242.28125 58.863281 237.8125 63.398438 233 C 66.050781 230.175781 68.554688 227.144531 70.742188 223.925781 C 73.929688 219.207031 74.023438 214.238281 71.019531 209.25 C 68.394531 204.875 66.097656 200.332031 63.332031 196.054688 C 56.464844 185.476562 54.675781 174.011719 56.890625 161.808594 C 57.835938 156.597656 58.957031 151.40625 60.375 146.289062 C 63.175781 136.15625 68.386719 127.273438 75.886719 119.988281 C 87.484375 108.683594 101.605469 103.976562 117.746094 105.339844 C 119.796875 105.515625 121.84375 105.726562 123.902344 105.839844 C 130.28125 106.171875 134.925781 103.1875 138.28125 98.03125 C 140.386719 94.804688 141.332031 91.164062 142.074219 87.390625 C 145.011719 72.761719 149.933594 59.046875 160.46875 47.902344 C 167.085938 40.914062 174.570312 35.089844 182.875 30.308594 C 197.023438 22.148438 212.273438 17.03125 228.285156 14.222656 C 257.230469 9.167969 285.710938 11.117188 313.617188 20.472656 C 326.226562 24.707031 338.007812 30.621094 348.652344 38.671875 C 355.882812 44.128906 362.261719 50.425781 367.4375 57.878906 C 373.960938 67.234375 377.753906 77.515625 378.609375 88.964844 C 378.996094 94.332031 380.074219 99.703125 381.378906 104.941406 C 382.390625 108.980469 385.144531 111.949219 389.195312 113.480469 C 393.65625 115.164062 398.058594 116.984375 402.535156 118.605469 C 412.789062 122.304688 421.773438 128.035156 429.65625 135.496094 C 437.070312 142.515625 440.667969 151.054688 440.148438 161.390625 C 439.789062 168.707031 438.257812 175.769531 436.773438 182.871094 C 434.550781 193.480469 433.976562 204.121094 435.902344 214.820312 C 436.199219 216.527344 436.683594 218.195312 437.15625 219.855469 C 437.851562 222.21875 439.25 224.121094 441.289062 225.519531 C 443.515625 227.050781 445.785156 228.550781 448.003906 230.101562 C 452.117188 232.957031 455.976562 236.109375 458.589844 240.484375 C 463.429688 248.578125 463.773438 257.207031 460.742188 265.839844 C 458.960938 270.910156 456.289062 275.703125 453.667969 280.421875 C 449.125 288.621094 445.292969 297.066406 443.429688 306.300781 C 443.117188 307.886719 442.882812 309.496094 442.792969 311.109375 C 442.457031 316.394531 444.210938 320.578125 449.039062 323.359375 C 452.210938 325.183594 455.242188 327.34375 458.164062 329.578125 C 466.332031 335.789062 470.863281 344.191406 472.460938 354.242188 C 473.636719 361.769531 473.339844 369.09375 469.917969 376.148438 C 464.171875 387.96875 454.761719 394.738281 441.921875 397.027344 C 434.894531 398.289062 429.933594 404.128906 429.617188 411.703125 C 434.863281 413.066406 439.878906 415.199219 442.097656 420.796875 C 444.191406 426.128906 443.152344 431.449219 441.308594 436.734375 C 441.667969 437.050781 441.949219 437.421875 442.320312 437.585938 C 453.796875 442.816406 465.683594 446.144531 478.429688 445.847656 C 493.328125 445.476562 505.972656 439.8125 516.636719 429.523438 C 524.136719 422.28125 529.707031 413.667969 534.195312 404.324219 C 541.15625 389.832031 545.199219 374.480469 547.710938 358.691406 C 551.800781 332.953125 551.820312 307.117188 549.269531 281.25 C 548.4375 272.738281 547.15625 264.265625 546.210938 255.773438 C 546.007812 253.878906 546.035156 251.851562 546.507812 250.015625 C 547.296875 246.953125 549.492188 245.046875 552.589844 244.304688 C 554.703125 243.792969 556.679688 244.054688 558.292969 245.742188 C 558.949219 246.4375 559.691406 247.046875 560.878906 248.152344 C 560.71875 246.9375 560.765625 246.222656 560.515625 245.648438 C 559.636719 243.5625 558.808594 241.402344 557.660156 239.453125 C 552.664062 231.046875 549.269531 221.875 545.246094 213.003906 C 543.585938 209.359375 541.992188 205.679688 540.59375 201.925781 C 539.691406 199.515625 538.886719 196.984375 538.570312 194.445312 C 537.828125 188.4375 541.695312 184.726562 547.722656 185.339844 C 548.261719 185.386719 548.796875 185.476562 549.761719 185.625 C 549.632812 184.558594 549.578125 183.660156 549.398438 182.78125 C 547.898438 175.253906 546.277344 167.722656 544.886719 160.175781 C 543.761719 154.078125 543.875 147.882812 544.578125 141.71875 C 545.449219 134.171875 549.984375 129.945312 557.167969 129.90625 C 561.304688 129.898438 564.476562 131.613281 566.578125 135.210938 C 567.117188 136.148438 567.589844 137.109375 568.285156 138.4375 C 568.695312 137.40625 568.960938 136.664062 569.296875 135.953125 C 570.621094 133.113281 571.882812 130.242188 573.320312 127.460938 C 573.949219 126.234375 574.867188 125.09375 575.804688 124.058594 C 581.375 117.882812 589.304688 118.976562 592.539062 126.644531 C 593.976562 130.066406 594.46875 133.921875 595.238281 137.613281 C 595.597656 139.382812 595.644531 141.207031 595.867188 143.339844 C 597.117188 142.535156 597.980469 141.921875 598.898438 141.382812 C 605.480469 137.582031 611.804688 139.992188 614.039062 147.226562 C 615.605469 152.261719 615.746094 157.46875 615.855469 162.660156 C 615.921875 165.453125 615.855469 168.261719 615.855469 171.164062 C 616.570312 171.339844 617.070312 171.496094 617.578125 171.5625 C 624.292969 172.441406 628.34375 177.96875 628.945312 183.632812 C 629.28125 186.710938 629.328125 189.992188 628.601562 192.960938 C 625.414062 206.328125 622.492188 219.789062 616.957031 232.484375 C 614.910156 237.203125 614.167969 242.253906 613.714844 247.335938 C 613.539062 249.207031 613.917969 250.785156 615.921875 251.859375 C 619.535156 253.804688 621.039062 257.152344 621.6875 261.140625 C 625.894531 287.527344 627.953125 314.039062 627.210938 340.777344 C 626.386719 370.039062 622.429688 398.824219 614.140625 426.953125 C 608.132812 447.3125 600.003906 466.734375 588.746094 484.796875 C 579.273438 499.980469 567.980469 513.609375 554.007812 524.902344 C 537.839844 537.9375 519.6875 546.707031 499.058594 549.964844 C 480.164062 552.949219 461.675781 551 443.609375 544.882812 C 427.03125 539.265625 411.9375 530.882812 398.421875 519.738281 C 396.511719 518.164062 394.757812 516.363281 393.078125 514.527344 C 391.734375 513.046875 391.050781 511.199219 391.253906 509.152344 C 391.679688 504.867188 395.878906 502.300781 400.171875 503.875 C 402.175781 504.617188 404.027344 505.832031 405.875 506.972656 C 411.871094 510.644531 417.730469 514.59375 423.839844 518.078125 C 436.644531 525.375 450.234375 530.59375 464.847656 533.015625 C 487.738281 536.796875 509.273438 532.996094 529.367188 521.296875 C 544.902344 512.257812 557.308594 499.835938 567.765625 485.351562 C 580.839844 467.246094 589.886719 447.15625 596.515625 425.941406 C 603.292969 404.238281 607.160156 381.96875 608.984375 359.339844 C 611.265625 331.246094 610.078125 303.277344 606.261719 275.378906 C 606.128906 274.417969 605.925781 273.46875 605.675781 272.035156 Z M 294.222656 357.632812 C 291.570312 354.59375 291.273438 351.386719 291.171875 348.085938 C 290.941406 338.777344 290.585938 329.46875 290.375 320.152344 C 290.070312 306.9375 289.835938 293.738281 289.632812 280.507812 C 289.59375 278.347656 289.847656 276.1875 290.023438 274.035156 C 290.160156 272.125 291.050781 270.929688 292.988281 270.261719 C 298.144531 268.511719 302.261719 265.246094 305.847656 261.1875 C 310.027344 256.457031 313.488281 251.230469 316.390625 245.628906 C 321.777344 235.273438 325.417969 224.304688 327.949219 212.9375 C 333.410156 188.464844 334.199219 163.785156 331 138.964844 C 329.054688 123.863281 325.476562 109.167969 319.570312 95.074219 C 319.125 94.007812 318.605469 92.960938 318.03125 91.730469 C 310.160156 95.519531 302.613281 99.292969 295.539062 103.929688 C 291.191406 106.777344 286.878906 109.722656 282.363281 112.300781 C 279.378906 113.988281 276.117188 115.277344 272.84375 116.378906 C 268.894531 117.707031 264.933594 117.335938 261.125 115.546875 C 257.027344 113.609375 253.640625 110.808594 251.195312 106.941406 C 248.589844 102.824219 247.234375 98.3125 246.660156 93.519531 C 246.429688 91.496094 246.140625 89.476562 245.84375 87.09375 C 243.871094 87.34375 242.164062 87.425781 240.523438 87.816406 C 231.519531 90.011719 223.027344 93.546875 214.851562 97.808594 C 204.636719 103.121094 195.363281 109.945312 186.15625 116.796875 C 185.507812 117.28125 185.035156 118.105469 184.675781 118.863281 C 171.648438 146.195312 165.046875 174.78125 168.058594 205.179688 C 169.285156 217.34375 172.371094 229.042969 178.3125 239.851562 C 185.324219 252.621094 195.234375 261.929688 209.539062 266.0625 C 211.246094 266.554688 213.15625 267.40625 214.277344 268.703125 C 217.707031 272.597656 220.488281 276.707031 220.710938 282.417969 C 221.5625 304.601562 222.804688 326.78125 223.863281 348.957031 C 224.039062 352.691406 224.652344 356.484375 222.9375 360.414062 C 247.171875 370.027344 270.617188 369.964844 294.222656 357.632812 Z M 599.796875 194.777344 C 598.9375 195.703125 598.601562 196.121094 598.222656 196.484375 C 594.199219 200.265625 588.523438 198.820312 586.882812 193.5625 C 586.566406 192.535156 586.363281 191.449219 586.269531 190.375 C 585.335938 179.367188 584.4375 168.371094 583.554688 157.359375 C 583.109375 151.859375 582.703125 146.390625 582.277344 140.894531 C 581.441406 141.839844 581.089844 142.839844 580.960938 143.839844 C 580.691406 145.992188 580.457031 148.152344 580.320312 150.3125 C 579.605469 161.289062 580.820312 172.15625 581.941406 183.050781 C 582.257812 186.171875 582.839844 189.269531 583.136719 192.394531 C 583.535156 196.464844 581.496094 199.5625 578.058594 200.367188 C 574.644531 201.164062 571.429688 199.179688 570.054688 195.34375 C 569.472656 193.71875 568.980469 192.042969 568.574219 190.375 C 565.300781 177.132812 562.082031 163.886719 558.828125 150.648438 C 558.367188 148.800781 557.847656 146.976562 557.355469 145.121094 C 555.953125 148.328125 556.066406 151.5625 556.546875 154.707031 C 557.511719 161.003906 558.78125 167.269531 559.90625 173.546875 C 562.316406 186.980469 566.515625 199.765625 573.496094 211.566406 C 573.71875 211.945312 573.902344 212.347656 574.0625 212.734375 C 575.183594 215.542969 574.597656 218.390625 572.53125 220.152344 C 570.398438 221.988281 567.164062 222.171875 564.699219 220.355469 C 563.410156 219.410156 562.296875 218.175781 561.238281 216.953125 C 560.0625 215.582031 559.03125 214.078125 557.503906 212.03125 C 557.714844 213.144531 557.734375 213.570312 557.890625 213.941406 C 560.628906 220.058594 563.214844 226.261719 566.152344 232.277344 C 568.914062 237.953125 571.519531 243.636719 572.214844 249.996094 C 572.402344 251.703125 572.503906 253.425781 572.660156 255.382812 C 573.785156 255.523438 574.839844 255.714844 575.898438 255.789062 C 579.132812 256.039062 582.367188 256.21875 585.605469 256.484375 C 591.242188 256.976562 596.859375 256.914062 602.441406 255.808594 C 604.738281 255.34375 607.03125 254.714844 608.894531 252.796875 C 602.5625 250.441406 600.699219 245.648438 601.171875 239.539062 C 601.234375 238.667969 601.28125 237.785156 601.539062 236.960938 C 602.800781 232.824219 604.109375 228.710938 605.40625 224.59375 C 607.160156 219.019531 608.910156 213.457031 610.636719 207.878906 C 610.820312 207.246094 610.730469 206.515625 610.792969 205.523438 C 607.363281 207.152344 604.378906 207.164062 601.792969 204.605469 C 599.140625 202.007812 599.835938 198.617188 599.835938 194.730469 Z M 157.25 167.539062 C 153.550781 166.84375 150.289062 166.082031 146.988281 165.636719 C 138.617188 164.507812 133.230469 168.4375 131.542969 176.753906 C 131.367188 177.605469 131.132812 178.460938 131.085938 179.3125 C 130.828125 184.300781 132.328125 189.789062 137.667969 191.496094 C 142.277344 192.960938 147.097656 193.878906 151.84375 194.804688 C 153.949219 195.222656 154.738281 194.222656 154.941406 192.144531 C 155.527344 186.21875 156.195312 180.324219 156.785156 174.417969 C 157.007812 172.210938 157.09375 169.96875 157.230469 167.539062 Z M 344.480469 202.871094 C 349.914062 203.898438 354.882812 203.601562 359.65625 201.367188 C 367.167969 197.875 369.050781 188.527344 363.429688 182.371094 C 359.796875 178.394531 355.1875 176.171875 349.933594 175.296875 C 348.820312 175.113281 347.667969 175.269531 346.707031 175.269531 C 345.953125 184.738281 345.222656 193.71875 344.480469 202.890625 Z M 350.199219 208.980469 C 347.875 209.566406 347.375 211.074219 346.863281 212.421875 C 344.453125 218.734375 344.296875 225.121094 346.835938 231.433594 C 347.550781 233.207031 348.679688 234.910156 350.007812 236.285156 C 353.242188 239.628906 357.65625 239.769531 361.03125 236.582031 C 362.558594 235.132812 363.902344 233.289062 364.757812 231.34375 C 367.75 224.480469 367.742188 217.453125 365.027344 210.480469 C 364.515625 209.183594 363.726562 207.988281 362.910156 206.847656 C 362.261719 205.96875 361.234375 205.792969 360.304688 206.421875 C 359.371094 207.070312 359.25 207.996094 359.769531 209 C 359.972656 209.378906 360.242188 209.722656 360.445312 210.101562 C 364.089844 216.777344 363.921875 223.5625 360.984375 230.414062 C 360.648438 231.203125 360.148438 231.945312 359.609375 232.601562 C 357.0625 235.828125 353.957031 235.875 351.554688 232.59375 C 350.609375 231.316406 349.894531 229.785156 349.375 228.28125 C 347.597656 223.203125 347.714844 218.085938 349.265625 212.957031 C 349.617188 211.789062 349.820312 210.59375 350.183594 208.980469 Z M 154.136719 207.273438 C 153.570312 204.984375 153.117188 202.667969 152.402344 200.421875 C 152.085938 199.402344 150.945312 198.847656 150.027344 199.460938 C 149.386719 199.886719 149.101562 200.960938 148.832031 201.785156 C 148.722656 202.109375 149.101562 202.59375 149.230469 203 C 150.539062 207.246094 150.113281 211.34375 147.980469 215.230469 C 147.421875 216.257812 146.652344 217.230469 145.78125 218.011719 C 144 219.566406 142.054688 219.289062 140.886719 217.222656 C 140.164062 215.941406 139.671875 214.421875 139.449219 212.957031 C 138.976562 209.785156 139.597656 206.710938 140.792969 203.742188 C 141.128906 202.9375 141.535156 202.167969 141.757812 201.339844 C 141.851562 201.007812 141.664062 200.3125 141.425781 200.21875 C 141.015625 200.042969 140.414062 200.082031 139.960938 200.21875 C 139.597656 200.347656 139.292969 200.757812 139.015625 201.089844 C 135.464844 205.273438 134.84375 214.617188 137.800781 219.269531 C 140.191406 223.042969 144.34375 223.960938 147.839844 221.179688 C 149.324219 219.996094 150.554688 218.371094 151.519531 216.730469 C 153.160156 213.875 153.773438 210.667969 154.125 207.273438 Z M 602.125 167.363281 C 600.289062 174.464844 599.660156 181.660156 600.242188 188.984375 C 601.570312 181.835938 602.355469 174.648438 602.125 167.363281 Z M 602.125 167.363281 " fill-opacity="1" fill-rule="nonzero"/></g><path fill="#a2a3bd" d="M 367.816406 513.742188 C 367.09375 518.476562 366.492188 524.207031 365.292969 529.789062 C 362.78125 541.441406 359.953125 553.023438 358.925781 564.925781 C 358.15625 573.875 357.414062 582.839844 357.125 591.8125 C 356.800781 602.074219 358.960938 612.078125 361.53125 621.945312 C 363.476562 629.359375 366.128906 636.609375 368.355469 643.964844 C 372.414062 657.332031 377.152344 670.476562 382.046875 683.542969 C 385.644531 693.175781 389.453125 702.734375 392.828125 712.457031 C 397.472656 725.800781 400.570312 739.472656 401.609375 753.632812 C 402.054688 759.777344 403.378906 765.851562 404.167969 771.960938 C 404.511719 774.730469 404.484375 777.578125 404.667969 780.386719 C 404.84375 782.972656 405.066406 785.5625 405.269531 788.136719 C 405.363281 789.425781 405.558594 790.726562 405.511719 792.023438 C 405.316406 796.675781 402.054688 800.191406 397.707031 800.550781 C 393.320312 800.921875 389.5 798.050781 388.582031 793.46875 C 388.0625 790.816406 387.574219 788.101562 387.574219 785.421875 C 387.589844 777.039062 386.433594 768.796875 385.105469 760.566406 C 384.382812 756.078125 384.023438 751.535156 383.511719 747.019531 C 382.140625 734.773438 378.476562 723.09375 374.296875 711.585938 C 368.957031 696.949219 363.320312 682.410156 357.996094 667.742188 C 355.679688 661.335938 353.824219 654.753906 351.796875 648.253906 C 349.570312 641.136719 347.121094 634.070312 345.195312 626.859375 C 340.679688 609.945312 339.355469 592.84375 341.070312 575.339844 C 342.699219 558.796875 345.257812 542.480469 349.46875 526.414062 C 352.121094 516.28125 351.636719 506.257812 349.125 496.21875 C 346.390625 485.296875 343.664062 474.375 340.929688 463.453125 C 340.578125 462.101562 340.152344 460.746094 339.917969 459.355469 C 339.429688 456.351562 340.679688 453.65625 343.015625 452.414062 C 345.464844 451.113281 348.523438 451.671875 350.71875 453.960938 C 351.683594 454.972656 352.546875 456.121094 353.1875 457.363281 C 354.402344 459.78125 355.617188 462.230469 356.449219 464.78125 C 360.632812 477.445312 364.347656 490.230469 366.683594 503.375 C 367.230469 506.453125 367.378906 509.605469 367.808594 513.742188 Z M 367.816406 513.742188 " fill-opacity="1" fill-rule="nonzero"/><path fill="#a2a3bd" d="M 147.933594 717.734375 C 147.480469 701.109375 150.175781 684.792969 153.28125 668.484375 C 156.203125 653.160156 158.492188 637.742188 159.746094 622.195312 C 160.421875 613.644531 159.921875 605.109375 159.113281 596.585938 C 158.132812 586.230469 157.425781 575.855469 156.304688 565.539062 C 155.320312 556.609375 153.753906 547.757812 152.746094 538.820312 C 150.316406 517.105469 151.566406 495.558594 156.917969 474.347656 C 158.019531 469.972656 159.789062 465.734375 161.570312 461.5625 C 162.394531 459.625 163.769531 457.808594 165.242188 456.296875 C 167.152344 454.320312 169.988281 454.128906 172.140625 455.378906 C 174.226562 456.59375 175.246094 458.773438 174.707031 461.515625 C 174.1875 464.167969 173.464844 466.773438 172.769531 469.386719 C 169.960938 480.125 168.664062 491.0625 167.902344 502.105469 C 166.773438 518.867188 168.476562 535.398438 171.425781 551.871094 C 172.675781 558.78125 173.242188 565.824219 173.984375 572.816406 C 174.882812 581.316406 175.644531 589.847656 176.496094 598.347656 C 178 613.332031 177.101562 628.210938 174.761719 643.027344 C 172.09375 660.03125 169.136719 676.996094 166.503906 693.988281 C 165.761719 698.792969 165.425781 703.6875 165.34375 708.546875 C 165.175781 718.167969 164.84375 727.828125 165.445312 737.425781 C 165.917969 745.066406 167.734375 752.609375 168.886719 760.203125 C 169.597656 764.90625 170.230469 769.625 170.824219 774.359375 C 170.953125 775.308594 170.90625 776.316406 170.769531 777.261719 C 170.191406 781.082031 167.46875 783.890625 163.832031 784.457031 C 160.152344 785.023438 156.582031 783.308594 154.988281 779.820312 C 154.136719 777.96875 153.644531 775.917969 153.320312 773.917969 C 152.066406 766.453125 151.039062 758.933594 149.75 751.472656 C 147.804688 740.316406 147.488281 729.082031 147.933594 717.742188 Z M 147.933594 717.734375 " fill-opacity="1" fill-rule="nonzero"/><path fill="#a2a3bd" d="M 653.765625 145.203125 C 654.007812 150.351562 653.265625 155.367188 651.6875 160.242188 C 651.195312 161.761719 650.484375 163.292969 649.539062 164.570312 C 647.8125 166.90625 644.882812 167.632812 642.257812 166.695312 C 639.65625 165.785156 637.902344 163.355469 638.023438 160.417969 C 638.085938 158.933594 638.503906 157.433594 638.941406 155.996094 C 641.65625 147.03125 641.074219 138.242188 637.660156 129.59375 C 635.863281 125.066406 633.054688 121.277344 629.03125 118.449219 C 628.140625 117.835938 627.277344 117.140625 626.589844 116.324219 C 625.265625 114.710938 624.839844 112.867188 625.730469 110.863281 C 626.589844 108.890625 628.1875 107.609375 630.261719 107.703125 C 632.246094 107.785156 634.351562 108.257812 636.179688 109.074219 C 640.441406 111.003906 643.566406 114.3125 646.171875 118.132812 C 650.789062 124.9375 653.089844 132.53125 653.800781 140.660156 C 653.921875 142.152344 653.820312 143.683594 653.820312 145.203125 Z M 653.765625 145.203125 " fill-opacity="1" fill-rule="nonzero"/><path fill="#a2a3bd" d="M 504.824219 173.378906 C 508.800781 173.25 511.027344 176.28125 509.785156 179.738281 C 508.375 183.632812 508.773438 187.40625 509.609375 191.246094 C 509.960938 192.820312 510.398438 194.398438 510.933594 195.90625 C 513.558594 203.316406 517.246094 210.128906 522.226562 216.257812 C 522.902344 217.09375 523.636719 217.917969 524.203125 218.828125 C 526.027344 221.8125 525.574219 225.296875 523.171875 227.402344 C 520.632812 229.628906 517.0625 229.515625 514.300781 227.085938 C 513.578125 226.449219 512.945312 225.695312 512.351562 224.917969 C 505.046875 215.230469 500.394531 204.390625 498.539062 192.394531 C 497.910156 188.324219 497.6875 184.152344 499.046875 180.175781 C 499.660156 178.375 500.691406 176.644531 501.886719 175.179688 C 502.710938 174.175781 504.195312 173.742188 504.824219 173.378906 Z M 504.824219 173.378906 " fill-opacity="1" fill-rule="nonzero"/><g clip-path="url(#32bfbede28)"><path fill="#a2a3bd" d="M 671.1875 145.613281 C 671.09375 146.214844 671.046875 147.300781 670.757812 148.347656 C 669.925781 151.480469 667.394531 153.34375 664.316406 153.222656 C 661.414062 153.09375 658.976562 151.121094 658.445312 148.078125 C 658.019531 145.632812 657.863281 143.117188 657.824219 140.644531 C 657.761719 134.355469 656.316406 128.394531 653.960938 122.648438 C 653.023438 120.375 651.699219 118.234375 650.34375 116.175781 C 648.824219 113.90625 648.5 112.015625 649.675781 110.179688 C 650.84375 108.398438 653.023438 107.453125 655.398438 108.195312 C 656.992188 108.683594 658.679688 109.519531 659.828125 110.667969 C 661.488281 112.347656 662.960938 114.304688 664.027344 116.378906 C 667.820312 123.789062 670.269531 131.59375 670.710938 139.964844 C 670.804688 141.699219 670.980469 143.425781 671.15625 145.632812 Z M 671.1875 145.613281 " fill-opacity="1" fill-rule="nonzero"/></g><path fill="#a2a3bd" d="M 491.167969 198.28125 C 493.457031 198.234375 494.960938 199.636719 495.75 202.082031 C 496.804688 205.347656 497.878906 208.648438 499.363281 211.742188 C 500.261719 213.617188 501.792969 215.265625 503.292969 216.757812 C 505.707031 219.179688 506.261719 222.332031 504.445312 224.953125 C 502.597656 227.617188 498.964844 228.488281 496.109375 226.714844 C 494.859375 225.945312 493.726562 224.824219 492.875 223.628906 C 489.222656 218.53125 487.078125 212.753906 486.191406 206.578125 C 485.957031 204.9375 486.253906 203.113281 486.765625 201.515625 C 487.375 199.496094 489.015625 198.421875 491.1875 198.300781 Z M 491.167969 198.28125 " fill-opacity="1" fill-rule="nonzero"/><path fill="#a2a3bd" d="M 248.320312 242.125 C 237.675781 241.984375 227.703125 239.945312 218.429688 234.957031 C 213.035156 232.054688 208.296875 228.328125 204.488281 223.480469 C 201.296875 219.410156 199.042969 214.894531 198.191406 209.769531 C 197.921875 208.191406 197.859375 206.515625 198.035156 204.9375 C 198.285156 202.648438 199.972656 201.109375 202.03125 200.839844 C 204.058594 200.570312 205.980469 201.75 206.878906 203.882812 C 207.175781 204.578125 207.378906 205.320312 207.519531 206.058594 C 208.945312 213.144531 213.015625 218.417969 218.828125 222.46875 C 225.1875 226.910156 232.355469 229.257812 239.96875 230.175781 C 250.488281 231.433594 260.761719 230.351562 270.414062 225.761719 C 273.789062 224.148438 276.949219 221.949219 279.953125 219.679688 C 281.621094 218.417969 282.761719 216.445312 284.117188 214.785156 C 285.007812 213.699219 285.730469 212.457031 286.757812 211.539062 C 288.992188 209.566406 292.21875 209.425781 294.582031 211.019531 C 296.957031 212.597656 298.144531 215.65625 297.097656 218.445312 C 296.492188 220.011719 295.519531 221.5625 294.359375 222.777344 C 281.84375 236.109375 266.121094 241.875 248.3125 242.144531 Z M 248.320312 242.125 " fill-opacity="1" fill-rule="nonzero"/><path fill="#a2a3bd" d="M 241.71875 179.738281 C 242.304688 174.167969 242.839844 168.890625 243.445312 163.636719 C 244.007812 158.582031 244.640625 153.539062 245.308594 148.503906 C 245.445312 147.449219 245.714844 146.355469 246.140625 145.378906 C 247.042969 143.257812 248.96875 142.125 251.035156 142.375 C 253.207031 142.644531 254.632812 143.90625 255.144531 145.992188 C 255.476562 147.335938 255.617188 148.78125 255.570312 150.171875 C 255.164062 161.523438 254.71875 172.886719 254.179688 184.234375 C 254.105469 185.792969 253.625 187.472656 252.902344 188.863281 C 251.183594 192.105469 248.699219 193.136719 245.039062 192.570312 C 243.757812 192.355469 242.460938 192.105469 241.199219 192.191406 C 239.382812 192.3125 238.121094 193.515625 237.984375 194.871094 C 237.835938 196.167969 238.902344 197.789062 240.496094 198.300781 C 241.488281 198.617188 242.609375 198.597656 243.683594 198.558594 C 244.539062 198.53125 245.371094 198.152344 246.226562 198.058594 C 249.460938 197.679688 252.351562 199.449219 253.4375 202.398438 C 254.511719 205.320312 253.417969 208.535156 250.648438 210.324219 C 248.089844 211.964844 245.175781 212.308594 242.210938 212.199219 C 233.625 211.875 226.515625 205.382812 225.707031 197.160156 C 224.921875 189.074219 230.261719 181.945312 238.296875 180.378906 C 239.335938 180.175781 240.394531 180.007812 241.765625 179.75 Z M 241.71875 179.738281 " fill-opacity="1" fill-rule="nonzero"/><path fill="#a2a3bd" d="M 310.753906 160.871094 C 310.519531 162.355469 310.472656 163.902344 310.027344 165.324219 C 308.953125 168.761719 305.644531 170.847656 302.277344 170.375 C 298.785156 169.875 296.261719 167.121094 296.058594 163.515625 C 295.992188 162.328125 296.179688 161.132812 296.132812 159.945312 C 295.972656 156.089844 292.960938 153.902344 289.207031 154.847656 C 286.757812 155.457031 285.035156 157.023438 283.660156 159.066406 C 282.875 160.222656 282.179688 161.476562 281.242188 162.503906 C 279.414062 164.527344 276.773438 165.089844 274.417969 164.0625 C 272.007812 163.023438 270.644531 161.09375 270.683594 158.488281 C 270.699219 156.914062 270.996094 155.246094 271.582031 153.769531 C 275.113281 144.75 285.109375 139.179688 294.667969 140.820312 C 304.058594 142.421875 310.679688 150.730469 310.753906 160.871094 Z M 310.753906 160.871094 " fill-opacity="1" fill-rule="nonzero"/><path fill="#a2a3bd" d="M 213.460938 129.164062 C 224.335938 129.3125 230.707031 137.546875 230.324219 147.363281 C 230.167969 151.371094 227.257812 154.242188 223.59375 154.402344 C 219.867188 154.558594 216.945312 152.007812 216.269531 147.976562 C 216.207031 147.558594 216.207031 147.113281 216.140625 146.6875 C 215.761719 143.480469 214.492188 142.597656 211.308594 143.542969 C 208.203125 144.460938 205.765625 146.417969 203.632812 148.78125 C 202.625 149.90625 201.722656 151.15625 200.65625 152.214844 C 198.332031 154.511719 195.449219 154.984375 192.945312 153.566406 C 190.402344 152.113281 189.347656 149.097656 190.265625 145.910156 C 190.328125 145.707031 190.402344 145.5 190.488281 145.296875 C 193.539062 136.84375 204.382812 129.210938 213.480469 129.136719 Z M 213.460938 129.164062 " fill-opacity="1" fill-rule="nonzero"/><path fill="#a2a3bd" d="M 255.683594 291.003906 C 251.214844 290.761719 247.199219 290.601562 243.203125 290.34375 C 242.035156 290.261719 240.839844 290.019531 239.734375 289.601562 C 237.039062 288.554688 235.515625 286.300781 235.515625 283.632812 C 235.515625 280.867188 237.222656 278.441406 240.050781 277.558594 C 241.582031 277.085938 243.222656 276.816406 244.835938 276.753906 C 251.769531 276.511719 258.695312 276.308594 265.628906 276.28125 C 271.535156 276.242188 275.242188 281.164062 273.335938 286.199219 C 272.210938 289.15625 269.53125 290.9375 265.925781 291.003906 C 262.355469 291.066406 258.777344 291.003906 255.664062 291.003906 Z M 255.683594 291.003906 " fill-opacity="1" fill-rule="nonzero"/></svg>